<svg xmlns="http://www.w3.org/2000/svg" version="1.0" width="1280.000000pt" height="640.000000pt" viewBox="0 0 1280.000000 640.000000" preserveAspectRatio="xMidYMid meet">
<metadata>
</metadata>
<g transform="translate(0.000000,640.000000) scale(0.100000,-0.100000)" fill="#ffffff" stroke="none">
<path d="M5422 5085 c-81 -46 -280 -225 -549 -492 -128 -127 -204 -187 -313 -245 -36 -20 -92 -52 -125 -72 -33 -20 -82 -43 -110 -51 -49 -14 -247 -42 -455 -65 -58 -6 -136 -15 -175 -20 -38 -6 -94 -12 -124 -15 -62 -6 -344 -50 -481 -75 -25 -5 -85 -15 -135 -24 -49 -8 -119 -22 -155 -30 -36 -8 -139 -30 -230 -50 -91 -19 -219 -49 -285 -66 -66 -17 -156 -40 -200 -51 -121 -31 -256 -76 -401 -135 -72 -29 -198 -74 -280 -99 -296 -91 -658 -228 -834 -315 -41 -20 -129 -61 -195 -90 -66 -30 -136 -64 -155 -75 -19 -12 -55 -31 -80 -42 -66 -29 -105 -66 -125 -118 -17 -46 -17 -46 6 -71 23 -24 28 -25 104 -19 43 3 89 8 101 11 12 3 47 1 79 -5 45 -8 72 -22 128 -66 114 -87 151 -121 138 -129 -10 -6 -207 11 -221 19 -3 2 -32 6 -65 10 -33 3 -87 17 -122 31 -65 26 -121 26 -143 0 -17 -21 -21 -70 -8 -87 19 -23 200 -134 210 -129 5 3 115 -44 193 -81 22 -10 119 -47 215 -83 96 -35 218 -83 271 -105 53 -23 121 -46 150 -51 30 -5 108 -21 174 -35 128 -28 263 -47 275 -40 5 3 25 -2 45 -11 21 -8 72 -17 114 -18 42 -2 94 -8 116 -14 48 -14 307 -76 545 -132 333 -78 929 -152 1480 -185 52 -3 109 -7 125 -10 17 -3 152 -12 300 -20 149 -8 374 -22 500 -30 127 -9 314 -15 417 -14 l188 2 82 -50 c132 -81 243 -137 383 -196 278 -115 370 -142 532 -154 91 -6 92 -6 103 18 8 17 8 33 1 50 -12 33 -86 122 -181 219 -65 66 -106 119 -98 125 2 1 77 8 168 14 91 7 233 21 315 32 266 35 472 72 894 160 24 5 85 14 135 20 78 9 105 17 189 60 85 44 110 51 190 60 51 6 109 8 130 5 51 -8 351 -121 497 -186 300 -135 488 -198 614 -207 81 -6 83 -5 118 26 25 22 56 73 102 167 39 80 96 177 141 239 42 57 86 130 99 162 12 32 35 77 49 100 30 48 34 78 12 87 -8 3 -46 9 -83 12 -37 4 -84 13 -106 20 -21 8 -64 14 -94 14 -96 0 -62 13 158 59 109 23 294 46 535 67 114 9 411 6 470 -5 153 -30 531 -183 895 -363 507 -251 633 -308 864 -389 159 -56 246 -74 279 -57 12 6 28 14 35 17 7 3 21 18 30 33 16 26 15 32 -22 140 -22 62 -45 122 -52 134 -40 60 -118 282 -150 424 -19 85 -42 175 -50 200 -9 25 -26 81 -39 125 -13 44 -35 114 -50 155 -30 84 -29 133 5 250 10 36 21 82 24 102 10 62 46 187 72 241 13 29 24 64 24 79 0 36 44 187 68 235 11 21 30 81 42 133 12 52 35 122 50 155 30 63 50 146 57 231 4 45 2 54 -18 68 -13 9 -38 16 -55 16 -37 0 -146 -32 -224 -65 -30 -13 -111 -47 -179 -75 -148 -61 -353 -162 -471 -232 -47 -28 -116 -69 -155 -91 -38 -23 -167 -102 -285 -176 -220 -137 -353 -211 -380 -211 -18 0 -113 -34 -232 -84 -97 -40 -142 -44 -268 -21 -239 43 -363 66 -425 81 -81 18 -70 16 -290 61 -93 19 -196 38 -229 43 -69 10 -75 15 -53 38 13 12 35 17 85 18 106 1 148 39 116 103 -29 58 -113 94 -250 107 -93 9 -188 -8 -364 -63 -80 -25 -161 -48 -180 -50 -30 -4 -296 30 -445 57 -27 5 -68 12 -90 14 -22 3 -74 10 -115 16 -179 24 -631 75 -755 86 -33 2 -96 9 -140 14 -44 5 -118 12 -165 15 -47 3 -96 8 -110 10 -14 2 -74 7 -135 10 -60 3 -137 8 -170 10 -33 3 -163 10 -290 15 -285 12 -388 21 -378 31 13 12 122 29 189 29 35 0 75 5 89 12 34 15 42 51 20 85 -27 40 -215 223 -230 223 -23 0 -188 139 -374 316 -161 154 -217 201 -260 224 -52 26 -77 25 -129 -5z"/>
</g>
</svg>